<svg xmlns="http://www.w3.org/2000/svg" width="15.124" height="15.124" viewBox="0 0 15.124 15.124"><defs><style>.aaa{fill:#8f909d;}</style></defs><path class="aaa" d="M15.612,2a1.512,1.512,0,0,0-1.338,2.217L12.98,5.834a1.5,1.5,0,0,0-1.362.3L9.558,5.1q0-.039,0-.078a1.512,1.512,0,1,0-3.025,0q0,.039,0,.078L4.481,6.133a1.512,1.512,0,1,0,.544,1.161q0-.039,0-.078L7.081,6.186a1.511,1.511,0,0,0,1.938,0l2.06,1.029q0,.039,0,.078a1.512,1.512,0,1,0,2.851-.7l1.294-1.617A1.513,1.513,0,1,0,15.612,2Zm0,8.318a1.51,1.51,0,0,0-1.359,2.174l-1.291,1.656a1.5,1.5,0,0,0-1.079.125L10.267,12.98a1.511,1.511,0,1,0-2.957-.6l-2.632.752A1.514,1.514,0,1,0,5.009,14.3l2.632-.752a1.509,1.509,0,0,0,1.868.375l1.617,1.294a1.513,1.513,0,1,0,2.79-.328l1.258-1.613a1.512,1.512,0,1,0,.437-2.96Z" transform="translate(-2 -2)"/></svg>