<svg xmlns="http://www.w3.org/2000/svg" width="17" height="17" viewBox="0 0 17 17"><defs><style>.a{fill:#fff;}</style></defs><path class="a" d="M8.8,2a6.8,6.8,0,1,0,6.8,6.8A6.808,6.808,0,0,0,8.8,2ZM8.556,3.712v.862a2.155,2.155,0,0,0-1.9,2.288c0,2.84,2.94,2,2.94,3.893,0,.949-.614.971-.739.971s-.862.061-.862-1.391H6.388c0,2.458,1.783,2.655,2.049,2.691v.857a5.094,5.094,0,0,1,.12-10.17Zm.857.03a5.1,5.1,0,0,1-.125,10.134v-.85A2.128,2.128,0,0,0,11.2,10.742c0-2.724-2.939-2.2-2.94-3.875,0-.958.527-.988.641-.988.208,0,.7.184.7,1.351h1.607C11.212,5,9.685,4.65,9.413,4.6Zm7.8,3.875a8.035,8.035,0,0,1-.133,3.093,5.1,5.1,0,0,1-6.367,6.367,8.035,8.035,0,0,1-3.093.133,6.789,6.789,0,0,0,9.592-9.592Z" transform="translate(-2 -2)"/></svg>