<svg xmlns="http://www.w3.org/2000/svg" width="21.071" height="14.047" viewBox="0 0 21.071 14.047"><defs><style>.a{fill:#fff;opacity:0.8;}</style></defs><path class="a" d="M10.535,4a3.073,3.073,0,1,0,3.073,3.073A3.073,3.073,0,0,0,10.535,4Zm0,1.756A1.317,1.317,0,1,1,9.218,7.073,1.319,1.319,0,0,1,10.535,5.756Zm-6.585.878A2.195,2.195,0,1,0,6.146,8.829,2.195,2.195,0,0,0,3.951,6.634Zm13.169,0a2.195,2.195,0,1,0,2.195,2.195A2.195,2.195,0,0,0,17.12,6.634ZM3.951,8.146a.682.682,0,1,1-.682.682A.683.683,0,0,1,3.951,8.146Zm13.169,0a.682.682,0,1,1-.682.682A.683.683,0,0,1,17.12,8.146ZM10.535,11.9a10.673,10.673,0,0,0-4.781,1.228,5.127,5.127,0,0,0-1.8-.35C1.987,12.779,0,14.007,0,15.353v2.694H21.071V15.353c0-1.347-1.987-2.574-3.951-2.574a5.127,5.127,0,0,0-1.8.35A10.673,10.673,0,0,0,10.535,11.9Zm0,1.756c1.874,0,4.058.844,4.39,1.375v1.259H6.146V15.033C6.478,14.5,8.662,13.657,10.535,13.657Zm-6.585.878a3.072,3.072,0,0,1,.49.055,1.5,1.5,0,0,0-.051.384v1.317H1.756v-.869A2.914,2.914,0,0,1,3.951,14.535Zm13.169,0a2.914,2.914,0,0,1,2.195.887v.869H16.681V14.974a1.5,1.5,0,0,0-.051-.384A3.072,3.072,0,0,1,17.12,14.535Z" transform="translate(0 -4)"/></svg>