<svg xmlns="http://www.w3.org/2000/svg" width="62" height="30" viewBox="0 0 62 30"><defs><style>.a{fill:#fff;}.b1{fill:#1d55cc;}.c{fill:#b8bac6;}</style></defs><rect class="a" width="62" height="30" rx="5"/><rect class="b1" width="27.22" height="25.5" rx="5" transform="translate(3 2.25)"/><path class="c" d="M7.537,3H4.512A1.512,1.512,0,0,0,3,4.512V7.537A1.512,1.512,0,0,0,4.512,9.049H7.537A1.512,1.512,0,0,0,9.049,7.537V4.512A1.512,1.512,0,0,0,7.537,3ZM4.512,7.537V4.512H7.537V7.537ZM15.1,3H12.073a1.512,1.512,0,0,0-1.512,1.512V7.537a1.512,1.512,0,0,0,1.512,1.512H15.1A1.512,1.512,0,0,0,16.61,7.537V4.512A1.512,1.512,0,0,0,15.1,3ZM12.073,7.537V4.512H15.1V7.537ZM7.537,10.561H4.512A1.512,1.512,0,0,0,3,12.073V15.1A1.512,1.512,0,0,0,4.512,16.61H7.537A1.512,1.512,0,0,0,9.049,15.1V12.073A1.512,1.512,0,0,0,7.537,10.561ZM4.512,15.1V12.073H7.537V15.1ZM15.1,10.561H12.073a1.512,1.512,0,0,0-1.512,1.512V15.1a1.512,1.512,0,0,0,1.512,1.512H15.1A1.512,1.512,0,0,0,16.61,15.1V12.073A1.512,1.512,0,0,0,15.1,10.561ZM12.073,15.1V12.073H15.1V15.1Z" transform="translate(36.317 5.25)"/><g transform="translate(-1.073 1.305)"><rect class="a" width="15" height="2" transform="translate(10.073 9.75)"/><rect class="a" width="15" height="2" transform="translate(10.073 15.75)"/></g></svg>